nColumns=19
nRows=82
DataType=double
version=3
OpenSimVersion=4.1
endheader
time	ground_force_1_vx	ground_force_1_vy	ground_force_1_vz	ground_force_1_px	ground_force_1_py	ground_force_1_pz	ground_force_1_mx	ground_force_1_my	ground_force_1_mz	ground_force_2_vx	ground_force_2_vy	ground_force_2_vz	ground_force_2_px	ground_force_2_py	ground_force_2_pz	ground_force_2_mx	ground_force_2_my	ground_force_2_mz
0	-103.51	493.222	-7.34942	0.152483	0.006	-0.170214	0	0.809313	0	0	0	0	0.691842	0	-0.248833	0	0	0
0.01	-105.825	510.324	-10.4638	0.155083	0.006	-0.169968	0	0.871499	0	0	0	0	0.691842	0	-0.248833	0	0	0
0.02	-108.024	529.819	-13.666	0.158243	0.006	-0.169714	0	0.943811	0	0	0	0	0.691842	0	-0.248833	0	0	0
0.03	-109.935	551.277	-16.8115	0.161401	0.006	-0.169516	0	1.02057	0	0	0	0	0.691842	0	-0.248833	0	0	0
0.04	-111.366	573.98	-19.7413	0.164457	0.006	-0.169381	0	1.09502	0	0	0	0	0.691842	0	-0.248833	0	0	0
0.05	-112.138	596.966	-22.3119	0.167341	0.006	-0.169311	0	1.15921	0	0	0	0	0.691842	0	-0.248833	0	0	0
0.06	-112.104	619.144	-24.4349	0.170019	0.006	-0.169293	0	1.20415	0	0	0	0	0.691842	0	-0.248833	0	0	0
0.07	-111.164	639.404	-26.0829	0.17249	0.006	-0.169307	0	1.22224	0	0	0	0	0.691842	0	-0.248833	0	0	0
0.08	-109.283	656.743	-27.2801	0.174779	0.006	-0.16933	0	1.20863	0	0	0	0	0.691842	0	-0.248833	0	0	0
0.09	-106.488	670.393	-28.0849	0.176925	0.006	-0.169339	0	1.16146	0	0	0	0	0.691842	0	-0.248833	0	0	0
0.1	-102.859	679.896	-28.565	0.178974	0.006	-0.169317	0	1.0819	0	0	0	0	0.691842	0	-0.248833	0	0	0
0.11	-98.5006	685.103	-28.7818	0.180968	0.006	-0.16925	0	0.973297	0	0	0	0	0.691842	0	-0.248833	0	0	0
0.12	-93.5323	686.126	-28.7862	0.182943	0.006	-0.169129	0	0.840226	0	0	0	0	0.691842	0	-0.248833	0	0	0
0.13	-88.0779	683.271	-28.6194	0.18493	0.006	-0.168948	0	0.687438	0	0	0	0	0.691842	0	-0.248833	0	0	0
0.14	-82.2613	676.964	-28.3124	0.186954	0.006	-0.168702	0	0.519182	0	0	0	0	0.691842	0	-0.248833	0	0	0
0.15	-76.2011	667.708	-27.8865	0.189036	0.006	-0.168391	0	0.33879	0	0	0	0	0.691842	0	-0.248833	0	0	0
0.16	-70.0091	656.043	-27.3543	0.191195	0.006	-0.168016	0	0.148602	0	0	0	0	0.691842	0	-0.248833	0	0	0
0.17	-63.7896	642.533	-26.7221	0.193445	0.006	-0.16758	0	-0.04983	0	0	0	0	0.691842	0	-0.248833	0	0	0
0.18	-57.638	627.759	-25.9958	0.1958	0.006	-0.167091	0	-0.255243	0	0	0	0	0.691842	0	-0.248833	0	0	0
0.19	-51.6391	612.305	-25.1859	0.19827	0.006	-0.166556	0	-0.465954	0	0	0	0	0.691842	0	-0.248833	0	0	0
0.2	-45.864	596.738	-24.3102	0.200861	0.006	-0.165983	0	-0.679369	0	0	0	0	0.691842	0	-0.248833	0	0	0
0.21	-40.3693	581.586	-23.3952	0.203576	0.006	-0.16538	0	-0.892024	0	0	0	0	0.691842	0	-0.248833	0	0	0
0.22	-35.1966	567.313	-22.4748	0.20641	0.006	-0.164753	0	-1.09994	0	0	0	0	0.691842	0	-0.248833	0	0	0
0.23	-30.3729	554.301	-21.5891	0.209355	0.006	-0.16411	0	-1.29909	0	0	0	0	0.691842	0	-0.248833	0	0	0
0.24	-25.9105	542.844	-20.781	0.212397	0.006	-0.163452	0	-1.4858	0	0	0	0	0.691842	0	-0.248833	0	0	0
0.25	-21.809	533.146	-20.0921	0.215519	0.006	-0.162783	0	-1.65721	0	0	0	0	0.691842	0	-0.248833	0	0	0
0.26	-18.0576	525.327	-19.5576	0.218701	0.006	-0.162102	0	-1.81161	0	0	0	0	0.691842	0	-0.248833	0	0	0
0.27	-14.6368	519.429	-19.2005	0.221921	0.006	-0.161412	0	-1.94847	0	0	0	0	0.691842	0	-0.248833	0	0	0
0.28	-11.5198	515.43	-19.0305	0.225156	0.006	-0.160715	0	-2.06829	0	0	0	0	0.691842	0	-0.248833	0	0	0
0.29	-8.67148	513.254	-19.0438	0.228385	0.006	-0.160015	0	-2.17237	0	0	0	0	0.691842	0	-0.248833	0	0	0
0.3	-6.04867	512.789	-19.2295	0.231584	0.006	-0.159319	0	-2.26244	0	0	0	0	0.691842	0	-0.248833	0	0	0
0.31	-3.60307	513.888	-19.5752	0.234735	0.006	-0.158633	0	-2.34036	0	0	0	0	0.691842	0	-0.248833	0	0	0
0.32	-1.28412	516.38	-20.0688	0.23782	0.006	-0.157963	0	-2.40793	0	0	0	0	0.691842	0	-0.248833	0	0	0
0.33	0.959873	520.073	-20.6992	0.240826	0.006	-0.157315	0	-2.46692	0	0	0	0	0.691842	0	-0.248833	0	0	0
0.34	3.18145	524.769	-21.454	0.243747	0.006	-0.156692	0	-2.51914	0	0	0	0	0.691842	0	-0.248833	0	0	0
0.35	5.43356	530.277	-22.3189	0.24658	0.006	-0.156097	0	-2.56655	0	0	0	0	0.691842	0	-0.248833	0	0	0
0.36	7.76976	536.425	-23.2763	0.249322	0.006	-0.155529	0	-2.61124	0	0	0	0	0.691842	0	-0.248833	0	0	0
0.37	10.2423	543.062	-24.3076	0.251977	0.006	-0.154987	0	-2.65529	0	0	0	0	0.691842	0	-0.248833	0	0	0
0.38	12.8999	550.065	-25.395	0.254548	0.006	-0.154468	0	-2.70037	0	0	0	0	0.691842	0	-0.248833	0	0	0
0.39	15.7858	557.338	-26.5239	0.25704	0.006	-0.153966	0	-2.74729	0	0	0	0	0.691842	0	-0.248833	0	0	0
0.4	18.936	564.806	-27.6836	0.259457	0.006	-0.153478	0	-2.7957	0	0	0	0	0.691842	0	-0.248833	0	0	0
0.41	22.3791	572.406	-28.8665	0.261801	0.006	-0.152999	0	-2.84398	0	0	0	0	0.691842	0	-0.248833	0	0	0
0.42	26.137	580.077	-30.0658	0.264072	0.006	-0.152524	0	-2.88933	0	0	0	0	0.691842	0	-0.248833	0	0	0
0.43	30.2243	587.745	-31.2719	0.266264	0.006	-0.152053	0	-2.92824	0	0	0	0	0.691842	0	-0.248833	0	0	0
0.44	34.6466	595.321	-32.47	0.268372	0.006	-0.151584	0	-2.95695	0	0	0	0	0.691842	0	-0.248833	0	0	0
0.45	39.3977	602.683	-33.6384	0.270387	0.006	-0.151119	0	-2.97172	0	0	0	0	0.691842	0	-0.248833	0	0	0
0.46	44.4565	609.667	-34.7498	0.272304	0.006	-0.15066	0	-2.96898	0	0	0	0	0.691842	0	-0.248833	0	0	0
0.47	49.7847	616.064	-35.7719	0.27412	0.006	-0.150207	0	-2.94549	0	0	0	0	0.691842	0	-0.248833	0	0	0
0.48	55.3277	621.616	-36.6681	0.275833	0.006	-0.149761	0	-2.89868	0	0	0	0	0.691842	0	-0.248833	0	0	0
0.49	61.0157	626.018	-37.3982	0.277446	0.006	-0.149323	0	-2.82709	0	0	0	0	0.691842	0	-0.248833	0	0	0
0.5	66.7637	628.915	-37.9196	0.278964	0.006	-0.14889	0	-2.73061	0	0	0	0	0.691842	0	-0.248833	0	0	0
0.51	72.4712	629.916	-38.1875	0.280396	0.006	-0.14846	0	-2.61059	0	0	0	0	0.691842	0	-0.248833	0	0	0
0.52	78.0229	628.606	-38.1575	0.281754	0.006	-0.148034	0	-2.46974	0	0	0	0	0.691842	0	-0.248833	0	0	0
0.53	83.2899	624.564	-37.7897	0.283052	0.006	-0.147607	0	-2.3118	0	-1.62397	27.646	-6.72917	0.708296	0.006	-0.256137	0	-0.095129	0
0.54	88.129	617.386	-37.0533	0.284306	0.006	-0.147178	0	-2.14107	0	-4.3815	48.6573	-7.38288	0.746128	0.006	-0.272511	0	0.069877	0
0.55	92.3839	606.709	-35.9315	0.285536	0.006	-0.146748	0	-1.96206	0	-8.11299	74.704	-7.92894	0.765081	0.006	-0.280239	0	0.146443	0
0.56	95.888	592.231	-34.426	0.286761	0.006	-0.146314	0	-1.77903	0	-12.9521	105.97	-8.2798	0.776822	0.006	-0.28467	0	0.190163	0
0.57	98.4707	573.734	-32.5579	0.288006	0.006	-0.145881	0	-1.59609	0	-19.0067	142.328	-8.32589	0.785131	0.006	-0.287522	0	0.219026	0
0.58	99.9664	551.105	-30.3661	0.289294	0.006	-0.145448	0	-1.41716	0	-26.3233	183.284	-7.93856	0.79161	0.006	-0.28952	0	0.240739	0
0.59	100.227	524.359	-27.9061	0.290649	0.006	-0.14502	0	-1.246	0	-34.8098	228.028	-6.97703	0.797045	0.006	-0.291026	0	0.259501	0
0.6	99.1365	493.662	-25.2466	0.292097	0.006	-0.144598	0	-1.08591	0	-44.2077	275.482	-5.30268	0.801853	0.006	-0.292242	0	0.277787	0
0.61	96.6242	459.347	-22.4676	0.293662	0.006	-0.144182	0	-0.939375	0	-54.1382	324.32	-2.81019	0.806262	0.006	-0.293285	0	0.296033	0
0.62	92.6797	421.915	-19.6566	0.295366	0.006	-0.143771	0	-0.807688	0	-64.1577	373.033	0.523596	0.810395	0.006	-0.294218	0	0.311036	0
0.63	87.3601	382.039	-16.9007	0.297236	0.006	-0.14336	0	-0.690899	0	-73.8036	420.075	4.60041	0.814321	0.006	-0.295072	0	0.315047	0
0.64	80.7941	340.542	-14.2776	0.299301	0.006	-0.142946	0	-0.588016	0	-82.6392	464.085	9.20688	0.818072	0.006	-0.295857	0	0.298405	0
0.65	73.1828	298.368	-11.8481	0.301598	0.006	-0.142522	0	-0.497354	0	-90.3076	504.061	14.0745	0.821669	0.006	-0.296576	0	0.255294	0
0.66	64.7938	256.521	-9.65199	0.304173	0.006	-0.142079	0	-0.416954	0	-96.5776	539.44	18.932	0.82513	0.006	-0.297229	0	0.185871	0
0.67	55.9495	215.998	-7.70904	0.307089	0.006	-0.141603	0	-0.345082	0	-101.335	570.03	23.5107	0.82847	0.006	-0.297813	0	0.09327	0
0.68	47.0001	177.708	-6.0223	0.310438	0.006	-0.141064	0	-0.2805	0	-104.546	595.856	27.5669	0.8317	0.006	-0.298328	0	-0.017199	0
0.69	38.2876	142.403	-4.58196	0.314371	0.006	-0.140418	0	-0.222435	0	-106.237	617.035	30.9332	0.834828	0.006	-0.298776	0	-0.137226	0
0.7	30.1126	110.644	-3.36815	0.319154	0.006	-0.139587	0	-0.170555	0	-106.482	633.694	33.5374	0.837867	0.006	-0.299168	0	-0.257498	0
0.71	22.7146	82.7863	-2.3543	0.325279	0.006	-0.13844	0	-0.124867	0	-105.403	645.951	35.3929	0.84083	0.006	-0.299516	0	-0.369715	0
0.72	16.2612	58.9777	-1.51142	0.33374	0.006	-0.136721	0	-0.085799	0	-103.162	653.953	36.5762	0.843739	0.006	-0.299838	0	-0.467171	0
0.73	10.838	39.1799	-0.814556	0.34681	0.006	-0.133857	0	-0.05461	0	-99.9439	657.928	37.1938	0.846616	0.006	-0.300149	0	-0.545152	0
0.74	6.44531	23.2021	-0.246722	0.370981	0.006	-0.12821	0	-0.035123	0	-95.9416	658.219	37.3533	0.849486	0.006	-0.300465	0	-0.600668	0
0.75	0	0	0	0.396826	0	-0.127215	0	0	0	-91.3448	655.282	37.1437	0.852369	0.006	-0.300794	0	-0.631766	0
0.76	0	0	0	0.420632	0	-0.127629	0	0	0	-86.3254	649.655	36.6261	0.855281	0.006	-0.301143	0	-0.636876	0
0.77	0	0	0	0.444439	0	-0.128042	0	0	0	-81.0305	641.91	35.8376	0.858229	0.006	-0.301515	0	-0.614345	0
0.78	0	0	0	0.468245	0	-0.128455	0	0	0	-75.5818	632.621	34.7999	0.861216	0.006	-0.301912	0	-0.562368	0
0.79	0	0	0	0.492052	0	-0.128869	0	0	0	-70.0783	622.324	33.5327	0.864236	0.006	-0.302332	0	-0.479238	0
0.8	0	0	0	0.515858	0	-0.129282	0	0	0	-64.6019	611.503	32.0662	0.867282	0.006	-0.302777	0	-0.364001	0
0.81	0	0	0	0.539665	0	-0.129695	0	0	0	-59.2229	600.582	30.4491	0.870342	0.006	-0.303248	0	-0.217103	0
